<svg width="20" height="18" viewBox="0 0 20 18" fill="none" xmlns="http://www.w3.org/2000/svg">
<path d="M9.63388 0.376577C9.14573 -0.125526 8.35427 -0.125526 7.86612 0.376577L0.366117 8.09086C0.131697 8.33198 0 8.65901 0 9C0 9.34099 0.131697 9.66802 0.366117 9.90914L7.86612 17.6234C8.35427 18.1255 9.14573 18.1255 9.63388 17.6234C10.122 17.1213 10.122 16.3073 9.63388 15.8051L4.26777 10.2857L18.75 10.2857C19.4404 10.2857 20 9.71008 20 9C20 8.28992 19.4404 7.71429 18.75 7.71429L4.26777 7.71429L9.63388 2.19485C10.122 1.69275 10.122 0.87868 9.63388 0.376577Z" fill="#252525"/>
</svg>
